<svg width="19" height="19" viewBox="0 0 19 19" fill="none" xmlns="http://www.w3.org/2000/svg">
<g opacity="0.5" clip-path="url(#clip0_1_957)">
<path d="M10.004 2.86368C10.6697 3.0772 11.3228 3.63612 11.9634 4.54044C12.516 5.29404 12.9682 6.23604 13.3199 7.36644C13.345 7.49204 13.4078 7.58938 13.5083 7.65846C13.6087 7.72754 13.7218 7.76208 13.8474 7.76208C13.9102 7.76208 13.9604 7.7558 13.9981 7.74324C14.1363 7.70556 14.243 7.61764 14.3184 7.47948C14.3937 7.34132 14.4126 7.20316 14.3749 7.065C13.9981 5.83412 13.4894 4.77908 12.8489 3.89988C12.0701 2.81972 11.2349 2.12892 10.3431 1.82748C10.205 1.77724 10.07 1.78666 9.93809 1.85574C9.80621 1.92482 9.71515 2.02844 9.66491 2.1666C9.61467 2.30476 9.62409 2.44292 9.69317 2.58108C9.76225 2.71924 9.86587 2.81344 10.004 2.86368ZM17.3705 8.21424C17.3453 8.07608 17.2763 7.9599 17.1632 7.8657C17.0502 7.7715 16.9214 7.73382 16.777 7.75266C16.6326 7.7715 16.5227 7.8186 16.4473 7.89396L16.2966 8.02584C16.1333 7.0964 15.8727 6.19522 15.5147 5.3223C15.1568 4.44938 14.7203 3.64868 14.2053 2.9202C13.5397 1.9782 12.7923 1.256 11.9634 0.753601C11.1344 0.2512 10.2866 0 9.41999 0C8.55335 0 7.70555 0.2512 6.87659 0.753601C6.04763 1.256 5.30031 1.9782 4.63463 2.9202C4.11967 3.64868 3.68321 4.44938 3.32525 5.3223C2.96729 6.19522 2.70667 7.0964 2.54339 8.02584L2.39267 7.89396C2.29219 7.80604 2.17601 7.7558 2.04413 7.74324C1.91225 7.73068 1.78979 7.7715 1.67675 7.8657C1.56371 7.9599 1.49463 8.07608 1.46951 8.21424C1.36903 8.95528 1.31879 9.6398 1.31879 10.2678C1.31879 11.5866 1.51975 12.7861 1.92167 13.8662C2.32359 14.9464 2.91391 15.8696 3.69263 16.6357C4.42111 17.3391 5.27833 17.8823 6.26429 18.2654C7.25025 18.6485 8.30529 18.84 9.42941 18.84C10.5535 18.84 11.6086 18.6485 12.5945 18.2654C13.5805 17.8823 14.4314 17.3391 15.1473 16.6357C15.9261 15.8696 16.5164 14.9464 16.9183 13.8662C17.3202 12.7861 17.5212 11.5866 17.5212 10.2678C17.5212 9.6398 17.4709 8.95528 17.3705 8.21424ZM5.52011 3.56076C6.09787 2.76948 6.71959 2.16032 7.38527 1.73328C8.05095 1.30624 8.72919 1.09272 9.41999 1.09272C10.1108 1.09272 10.7922 1.30624 11.4641 1.73328C12.1361 2.16032 12.7547 2.76948 13.3199 3.56076C13.8474 4.3018 14.2838 5.1339 14.6292 6.05706C14.9746 6.98022 15.2039 7.91908 15.3169 8.87364L14.4314 9.62724L12.2837 7.78092C12.1832 7.693 12.0639 7.64904 11.9257 7.64904C11.7875 7.64904 11.6682 7.693 11.5677 7.78092L9.41999 9.62724L7.27223 7.78092C7.17175 7.693 7.05243 7.64904 6.91427 7.64904C6.77611 7.64904 6.65679 7.693 6.55631 7.78092L4.40855 9.62724L3.52307 8.87364C3.63611 7.91908 3.86533 6.98022 4.21073 6.05706C4.55613 5.1339 4.99259 4.3018 5.52011 3.56076ZM14.3749 15.8444C13.7595 16.4599 13.0247 16.9309 12.1706 17.2574C11.3165 17.584 10.3997 17.7473 9.41999 17.7473C8.44031 17.7473 7.52657 17.584 6.67877 17.2574C5.83097 16.9309 5.09307 16.4599 4.46507 15.8444C3.79939 15.1788 3.29071 14.3718 2.93903 13.4235C2.58735 12.4752 2.41151 11.4233 2.41151 10.2678C2.41151 10.0794 2.42407 9.78424 2.44919 9.38232L4.05059 10.7765C4.15107 10.8644 4.27039 10.9084 4.40855 10.9084C4.54671 10.9084 4.66603 10.8644 4.76651 10.7765L6.91427 8.91132L9.06203 10.7765C9.16251 10.8644 9.28183 10.9084 9.41999 10.9084C9.55815 10.9084 9.67747 10.8644 9.77795 10.7765L11.9257 8.91132L14.0735 10.7765C14.1739 10.8644 14.2933 10.9084 14.4314 10.9084C14.5696 10.9084 14.6889 10.8644 14.7894 10.7765L16.3908 9.38232C16.4159 9.78424 16.4285 10.0794 16.4285 10.2678C16.4285 11.4233 16.2526 12.4752 15.9009 13.4235C15.5493 14.3718 15.0406 15.1788 14.3749 15.8444Z" fill="#3E445A"/>
</g>
<defs>
<clipPath id="clip0_1_957">
<rect width="18.84" height="18.84" fill="white" transform="matrix(1 0 0 -1 0 18.84)"/>
</clipPath>
</defs>
</svg>
