<svg width="19" height="19" viewBox="0 0 19 19" fill="none" xmlns="http://www.w3.org/2000/svg">
<g opacity="0.5" clip-path="url(#clip0_1_962)">
<path d="M17.3516 13.2516L15.4299 12.1583L17.0879 11.1781C17.2386 11.0775 17.3359 10.9424 17.3799 10.7728C17.4238 10.6031 17.4019 10.4429 17.3139 10.2921C17.226 10.1413 17.0973 10.0439 16.9277 9.99993C16.7582 9.95595 16.5917 9.97794 16.4285 10.0659L14.1488 11.4043L10.7011 9.42501L14.1488 7.42691L16.4285 8.78411C16.5541 8.84694 16.6702 8.87836 16.777 8.87836C16.8838 8.87836 16.9874 8.85008 17.0879 8.79353C17.1883 8.73698 17.2637 8.65844 17.3139 8.55791C17.4019 8.40711 17.4238 8.24688 17.3799 8.07723C17.3359 7.90758 17.2386 7.77249 17.0879 7.67196L15.4299 6.69176L17.3516 5.59846C17.5023 5.51049 17.5997 5.37854 17.6436 5.20261C17.6876 5.02667 17.6656 4.86331 17.5777 4.71251C17.4898 4.56171 17.361 4.46117 17.1915 4.41091C17.0219 4.36064 16.8555 4.37949 16.6922 4.46746L14.7894 5.57961L14.7705 3.65691C14.7705 3.48097 14.7077 3.33017 14.5821 3.20451C14.4565 3.07884 14.3058 3.01601 14.13 3.01601C13.9541 3.01601 13.8034 3.08198 13.6778 3.21393C13.5522 3.34588 13.4894 3.49982 13.4894 3.67576L13.5083 6.31476L10.0605 8.31286V4.33551L12.3779 3.03486C12.5286 2.93432 12.6291 2.79923 12.6793 2.62958C12.7295 2.45993 12.7076 2.29971 12.6134 2.1489C12.5192 1.99811 12.3904 1.89757 12.2271 1.84731C12.0639 1.79704 11.9006 1.81589 11.7373 1.90386L10.0605 2.84636V0.640905C10.0605 0.464972 9.99775 0.314173 9.87215 0.188505C9.74655 0.0628395 9.59583 5.72205e-06 9.41999 5.72205e-06C9.24415 5.72205e-06 9.09343 0.0628395 8.96783 0.188505C8.84223 0.314173 8.77943 0.464972 8.77943 0.640905V2.84636L7.10267 1.90386C6.95195 1.81589 6.79181 1.79704 6.62225 1.84731C6.45269 1.89757 6.32081 1.99811 6.22661 2.1489C6.13241 2.29971 6.11043 2.45993 6.16067 2.62958C6.21091 2.79923 6.31139 2.93432 6.46211 3.03486L8.77943 4.33551V8.31286L5.33171 6.31476L5.35055 3.67576C5.36311 3.49982 5.30659 3.34588 5.18099 3.21393C5.05539 3.08198 4.90467 3.01601 4.72883 3.01601H4.70999C4.53415 3.01601 4.38343 3.07884 4.25783 3.20451C4.13223 3.33017 4.06943 3.48097 4.06943 3.65691L4.05059 5.57961L2.14775 4.46746C1.98447 4.37949 1.81805 4.36064 1.64849 4.41091C1.47893 4.46117 1.35019 4.56171 1.26227 4.71251C1.17435 4.86331 1.15237 5.02667 1.19633 5.20261C1.24029 5.37854 1.34391 5.51049 1.50719 5.59846L3.41003 6.69176L1.75211 7.67196C1.60139 7.77249 1.50405 7.90758 1.46009 8.07723C1.41613 8.24688 1.43811 8.40711 1.52603 8.55791C1.57627 8.65844 1.65163 8.73698 1.75211 8.79353C1.85259 8.85008 1.95621 8.87836 2.06297 8.87836C2.16973 8.87836 2.28591 8.84694 2.41151 8.78411L4.69115 7.42691L8.13887 9.42501L4.69115 11.4231L2.41151 10.0659C2.24823 9.97794 2.08495 9.95595 1.92167 9.99993C1.75839 10.0439 1.62965 10.1413 1.53545 10.2921C1.44125 10.4429 1.41613 10.6031 1.46009 10.7728C1.50405 10.9424 1.60139 11.0775 1.75211 11.1781L3.41003 12.1583L1.50719 13.2516C1.34391 13.3395 1.24029 13.4715 1.19633 13.6474C1.15237 13.8233 1.17435 13.9867 1.26227 14.1375C1.31251 14.238 1.39101 14.3166 1.49777 14.3731C1.60453 14.4297 1.71757 14.458 1.83689 14.458C1.95621 14.458 2.05983 14.4265 2.14775 14.3637L4.05059 13.2704L4.06943 15.1931C4.06943 15.369 4.13223 15.5198 4.25783 15.6455C4.38343 15.7712 4.53415 15.834 4.70999 15.834H4.72883C4.90467 15.834 5.05539 15.768 5.18099 15.6361C5.30659 15.5041 5.36311 15.3502 5.35055 15.1743L5.33171 12.5353L8.77943 10.5372V14.5145L6.46211 15.8152C6.31139 15.9157 6.21091 16.0508 6.16067 16.2204C6.11043 16.3901 6.12927 16.5503 6.21719 16.7011C6.35535 16.9147 6.54375 17.0216 6.78239 17.0216C6.90799 17.0216 7.01475 16.9964 7.10267 16.9462L8.77943 16.0037V18.2091C8.77943 18.385 8.84223 18.5358 8.96783 18.6615C9.09343 18.7872 9.24415 18.85 9.41999 18.85C9.59583 18.85 9.74655 18.7872 9.87215 18.6615C9.99775 18.5358 10.0605 18.385 10.0605 18.2091V16.0037L11.7373 16.9462C11.8252 16.9964 11.932 17.0216 12.0576 17.0216C12.2962 17.0216 12.4846 16.9147 12.6228 16.7011C12.7107 16.5503 12.7295 16.3901 12.6793 16.2204C12.6291 16.0508 12.5286 15.9157 12.3779 15.8152L10.0605 14.5145V10.5372L13.5083 12.5353L13.4894 15.1743C13.4894 15.3502 13.5522 15.5041 13.6778 15.6361C13.8034 15.768 13.9479 15.834 14.1111 15.834H14.13C14.3058 15.834 14.4565 15.7712 14.5821 15.6455C14.7077 15.5198 14.7705 15.369 14.7705 15.1931L14.7894 13.2704L16.6922 14.3637C16.7927 14.4265 16.8995 14.458 17.0125 14.458C17.1255 14.458 17.2354 14.4297 17.3422 14.3731C17.449 14.3166 17.5275 14.238 17.5777 14.1375C17.6656 13.9867 17.6876 13.8233 17.6436 13.6474C17.5997 13.4715 17.5023 13.3395 17.3516 13.2516Z" fill="#3E445A"/>
</g>
<defs>
<clipPath id="clip0_1_962">
<rect width="18.84" height="18.85" fill="white" transform="matrix(1 0 0 -1 0 18.85)"/>
</clipPath>
</defs>
</svg>
